<svg width="30" height="30" viewBox="0 0 43 39" fill="none" xmlns="http://www.w3.org/2000/svg">
<path d="M41.0697 1.04492H1.00171V6.26886H41.0697V1.04492Z" fill="black"/>
<path d="M42.0714 7.31329H0V0H42.0714V7.31329ZM2.0034 5.22378H40.068V2.08951H2.0034V5.22378Z" fill="black"/>
<path d="M42.0713 38.656H0V5.22363H42.0713V38.656ZM2.0034 36.5665H40.0679V7.31316H2.0034V36.5665Z" fill="black"/>
<path d="M13.0219 14.6255H9.01514V18.8046H13.0219V14.6255Z" fill="black"/>
<path d="M23.039 14.6255H19.0322V18.8046H23.039V14.6255Z" fill="black"/>
<path d="M33.0559 14.6255H29.0491V18.8046H33.0559V14.6255Z" fill="black"/>
<path d="M13.0219 25.0728H9.01514V29.2518H13.0219V25.0728Z" fill="black"/>
<path d="M23.039 25.0728H19.0322V29.2518H23.039V25.0728Z" fill="black"/>
<path d="M33.0559 25.0728H29.0491V29.2518H33.0559V25.0728Z" fill="black"/>
</svg>
