<svg width="26" height="30" viewBox="0 0 26 30" fill="none" xmlns="http://www.w3.org/2000/svg">
<path d="M20.7959 11.4027C22.6173 9.08591 23.7585 6.14591 23.9241 3.40909H26V0H0V3.40909H2.07589C2.24147 6.14591 3.38274 9.08591 5.2041 11.4027C6.526 13.0841 8.07095 14.3045 9.72263 15.0027C8.67442 15.4473 7.66316 16.1045 6.71895 16.9636C5.12747 18.4105 3.81653 20.3632 2.99137 22.5H2.98316L2.82305 22.9568V22.9582L2.50695 23.8636H2.54116C2.28389 24.7841 2.12789 25.6964 2.07589 26.5909H0V30H26V26.5909H23.9241C23.8707 25.6964 23.7161 24.7841 23.4588 23.8636H23.4931L23.1769 22.9582C23.1769 22.9568 23.1756 22.9555 23.1756 22.9527L23.0168 22.5H23.0086C22.1835 20.3632 20.8725 18.4105 19.2797 16.9623C18.3355 16.1032 17.3242 15.4459 16.276 15.0014C17.9291 14.3045 19.4726 13.0841 20.7959 11.4027ZM22.5598 3.40909C22.4599 5.12864 21.9892 6.74591 21.2707 8.18182H4.78263C4.02726 6.65318 3.55242 4.99636 3.44432 3.40909H22.5598ZM22.5557 26.5909H3.44432C3.50453 25.7045 3.68105 24.7786 3.96432 23.8636H22.0357C22.3189 24.7786 22.4941 25.7045 22.5557 26.5909ZM21.5307 22.5H4.46379C6.43979 17.8227 10.1947 15.6818 13 15.6818C16.9082 15.6818 20.0405 19.0636 21.5307 22.5ZM13 14.3182C9.98674 14.3182 7.30737 12.2741 5.55442 9.54545H20.4812C18.5544 12.4418 15.6137 14.3182 13 14.3182Z" fill="black"/>
</svg>
